Coordinates
version=1
nRows=34
nColumns=38
inDegrees=no

Units are S.I. units (second, meters, Newtons, ...)
If the header above contains a line with 'inDegrees', this indicates whether rotational values are in degrees (yes) or radians (no).

endheader
time	pelvis_tilt	pelvis_list	pelvis_rotation	pelvis_tx	pelvis_ty	pelvis_tz	hip_flexion_r	hip_adduction_r	hip_rotation_r	knee_angle_r	ankle_angle_r	subtalar_angle_r	mtp_angle_r	hip_flexion_l	hip_adduction_l	hip_rotation_l	knee_angle_l	ankle_angle_l	subtalar_angle_l	mtp_angle_l	lumbar_extension	lumbar_bending	lumbar_rotation	arm_flex_r	arm_add_r	arm_rot_r	elbow_flex_r	pro_sup_r	wrist_flex_r	wrist_dev_r	arm_flex_l	arm_add_l	arm_rot_l	elbow_flex_l	pro_sup_l	wrist_flex_l	wrist_dev_l
1.27	-0.310604	1.47981	-1.26961	0.864214	0.673548	0.933966	0.0666057	0.0991761	-0.219488	0.216067	0.0919045	0	0	0.256195	-0.220625	-0.179495	1.34199	-0.0385077	0	0	-0.228755	-0.000326248	-0.0801039	-0.0444359	-0.249442	0.266282	0.510763	0.958307	0	0	-0.0894442	-0.382056	0.43615	0.683812	1.30467	0	0
1.28	-0.261801	1.48263	-1.32589	0.862836	0.664393	0.935526	0.0497731	0.0966055	-0.212281	0.201571	0.0918071	0	0	0.28462	-0.218835	-0.185132	1.3394	-0.0313059	0	0	-0.227205	-0.00725999	-0.0729725	-0.0444129	-0.250026	0.272026	0.510367	0.946298	0	0	-0.0881182	-0.384807	0.448146	0.689303	1.26835	0	0
1.29	-0.202684	1.4847	-1.39304	0.861804	0.655347	0.937059	0.0311063	0.0935101	-0.199372	0.183861	0.0884383	0	0	0.300476	-0.207276	-0.174616	1.32948	0.00402224	0	0	-0.226805	-0.0140483	-0.0656432	-0.0447572	-0.250069	0.269083	0.510756	0.946333	0	0	-0.0870452	-0.381185	0.437799	0.688083	1.29514	0	0
1.3	-0.168217	1.48371	-1.43343	0.86092	0.64632	0.938886	-0.0105708	0.10127	-0.143517	0.122709	0.0620153	0	0	0.317974	-0.202004	-0.170747	1.31501	0.0201868	0	0	-0.229062	-0.0178201	-0.059591	-0.0453026	-0.250337	0.267913	0.511768	0.943671	0	0	-0.0843535	-0.380511	0.440497	0.690517	1.28156	0	0
1.31	-0.0974151	1.48602	-1.51356	0.859647	0.637483	0.939888	-0.00430765	0.087957	-0.177132	0.154839	0.0837193	0	0	0.337044	-0.194464	-0.172603	1.29667	0.0328619	0	0	-0.228023	-0.0263404	-0.0512505	-0.0467006	-0.249885	0.265758	0.51422	0.942962	0	0	-0.083028	-0.379961	0.436315	0.694692	1.28351	0	0
1.32	-0.0485473	1.48475	-1.56648	0.858937	0.628372	0.941212	-0.0473764	0.0926417	-0.127968	0.094426	0.0617577	0	0	0.352154	-0.186892	-0.169839	1.27299	0.0428505	0	0	-0.230046	-0.0315314	-0.0480329	-0.0481338	-0.249245	0.263671	0.516502	0.943394	0	0	-0.0819762	-0.378734	0.431078	0.698215	1.28412	0	0
1.33	-0.00599135	1.48349	-1.6159	0.857937	0.619455	0.942257	-0.0675219	0.0898375	-0.113291	0.0777306	0.056975	0	0	0.365044	-0.181216	-0.171658	1.24498	0.0526162	0	0	-0.23218	-0.0369387	-0.0425188	-0.04905	-0.248655	0.259536	0.520145	0.943124	0	0	-0.080862	-0.377546	0.42596	0.701979	1.2841	0	0
1.34	0.109611	1.48559	-1.7378	0.856976	0.610247	0.942153	-0.0781818	0.0838626	-0.123802	0.0663776	0.0566505	0	0	0.380611	-0.169023	-0.176963	1.21386	0.0631932	0	0	-0.228507	-0.0490894	-0.0387668	-0.0521808	-0.247158	0.253926	0.525734	0.942322	0	0	-0.0821338	-0.378675	0.421321	0.708387	1.28427	0	0
1.35	0.140654	1.48382	-1.77461	0.856116	0.601315	0.942775	-0.0954872	0.0809271	-0.11706	0.0564183	0.0582913	0	0	0.390366	-0.164576	-0.182325	1.17896	0.073003	0	0	-0.230749	-0.053616	-0.0345939	-0.0534819	-0.246669	0.251174	0.530057	0.943499	0	0	-0.0809449	-0.377956	0.416846	0.712458	1.28407	0	0
1.36	0.162392	1.48178	-1.80211	0.855226	0.592335	0.943245	-0.113551	0.0786307	-0.10905	0.0457386	0.0596134	0	0	0.39792	-0.1614	-0.190454	1.14069	0.0824867	0	0	-0.233212	-0.0576513	-0.0306855	-0.0541484	-0.246385	0.250854	0.533293	0.945833	0	0	-0.0798003	-0.377163	0.412205	0.715744	1.28404	0	0
1.37	0.260823	1.48189	-1.90592	0.854497	0.58326	0.942696	-0.127255	0.0733526	-0.106025	0.0343425	0.0641646	0	0	0.407887	-0.151076	-0.202358	1.09872	0.0910868	0	0	-0.230612	-0.0684429	-0.0282474	-0.0559089	-0.245859	0.251293	0.538086	0.945541	0	0	-0.0801296	-0.379671	0.413844	0.724251	1.25552	0	0
1.38	0.269299	1.48043	-1.91846	0.853843	0.574368	0.942749	-0.143115	0.0718648	-0.101159	0.0269053	0.0683112	0	0	0.413239	-0.148498	-0.213366	1.05366	0.0999388	0	0	-0.232899	-0.0711929	-0.0261712	-0.0552766	-0.245472	0.250073	0.540588	0.945048	0	0	-0.0783067	-0.377874	0.406637	0.726142	1.26045	0	0
1.39	0.0499301	1.46042	-1.70266	0.853377	0.565497	0.946544	-0.181867	0.0842519	-0.0937241	0.0251068	0.0635492	0	0	0.388582	-0.166529	-0.226538	0.998653	0.105896	0	0	-0.2628	-0.0536112	-0.021633	-0.049639	-0.24862	0.253904	0.541157	0.945753	0	0	-0.0694667	-0.36817	0.394838	0.716237	1.2722	0	0
1.4	0.0409161	1.4591	-1.69568	0.852757	0.556095	0.946105	-0.213132	0.0833853	-0.0898747	0	0.0632983	0	0	0.390148	-0.171758	-0.252073	0.949399	0.112355	0	0	-0.264397	-0.0543592	-0.0213735	-0.0497714	-0.24766	0.254091	0.542598	0.948486	0	0	-0.0687771	-0.368296	0.393096	0.71841	1.27066	0	0
1.41	-0.0201048	1.45137	-1.63896	0.85238	0.54759	0.946986	-0.217816	0.0896106	-0.0863651	0.0105632	0.0610226	0	0	0.380588	-0.175451	-0.26893	0.889404	0.114303	0	0	-0.276639	-0.0488465	-0.0181995	-0.0454649	-0.248696	0.255412	0.544091	0.948674	0	0	-0.0629844	-0.364125	0.388967	0.715475	1.26975	0	0
1.42	0.0320136	1.45482	-1.69338	0.852013	0.53854	0.94529	-0.238539	0.081651	-0.080616	0	0.0727947	0	0	0.383349	-0.164747	-0.287978	0.828445	0.115409	0	0	-0.273205	-0.0568117	-0.0191207	-0.0452072	-0.247399	0.257069	0.546572	0.94862	0	0	-0.0621991	-0.364829	0.386238	0.717863	1.26848	0	0
1.43	0.119621	1.45917	-1.78396	0.851905	0.529529	0.943099	-0.248365	0.0731842	-0.0839403	0	0.0884204	0	0	0.3852	-0.148552	-0.309003	0.761416	0.113481	0	0	-0.267731	-0.0681229	-0.0200878	-0.0450053	-0.246591	0.25971	0.54945	0.946953	0	0	-0.0616846	-0.36615	0.385103	0.721592	1.26344	0	0
1.44	0.0525852	1.45766	-1.71743	0.851824	0.520669	0.942417	-0.263777	0.0764568	-0.0769489	0	0.0939973	0	0	0.378974	-0.147792	-0.322075	0.694558	0.113911	0	0	-0.273009	-0.0612983	-0.0199807	-0.0423693	-0.246978	0.260127	0.550616	0.94635	0	0	-0.0571407	-0.363828	0.384444	0.719696	1.26016	0	0
1.45	-0.0122726	1.45388	-1.65265	0.852068	0.511701	0.941852	-0.28553	0.0786398	-0.0539862	0	0.0995628	0	0	0.367764	-0.147151	-0.342694	0.622994	0.112971	0	0	-0.280437	-0.0540457	-0.0203391	-0.0396522	-0.24789	0.260756	0.551778	0.946282	0	0	-0.0521391	-0.36032	0.383234	0.716276	1.25661	0	0
1.46	-0.0171227	1.45599	-1.64917	0.852439	0.502852	0.940072	-0.283919	0.0794054	-0.0499685	0	0.115135	0	0	0.361533	-0.13577	-0.359611	0.546185	0.109072	0	0	-0.280565	-0.0537136	-0.020533	-0.0379531	-0.248431	0.260698	0.553569	0.946508	0	0	-0.0479448	-0.357443	0.381711	0.713481	1.25228	0	0
1.47	0.0501812	1.4528	-1.71303	0.853348	0.494223	0.93917	-0.297302	0.0692037	-0.0569911	0	0.127797	0	0	0.329767	-0.0926572	-0.32926	0.416441	0.0841086	0	0	-0.286698	-0.062316	-0.0270586	-0.0335288	-0.247254	0.26674	0.55278	0.923898	0	0	-0.0407325	-0.365711	0.417235	0.721797	1.11616	0	0
1.48	0.0441537	1.45634	-1.70433	0.854152	0.484975	0.936953	-0.297208	0.0679626	-0.0762848	0.0100608	0.150134	0	0	0.317151	-0.0731365	-0.319769	0.322262	0.072817	0	0	-0.284808	-0.0606635	-0.0313107	-0.0316256	-0.245852	0.26002	0.551751	0.93079	0	0	-0.0384531	-0.361029	0.406167	0.715851	1.1546	0	0
1.49	0.0427948	1.45948	-1.69862	0.855366	0.475522	0.934579	-0.304324	0.066948	-0.0857847	0.0139081	0.16547	0	0	0.301576	-0.0521642	-0.302173	0.22492	0.0576622	0	0	-0.283237	-0.0589004	-0.0376665	-0.0299098	-0.245016	0.253236	0.551573	0.938945	0	0	-0.0369605	-0.35535	0.391962	0.709271	1.19671	0	0
1.5	0.0371144	1.4628	-1.68887	0.856622	0.465834	0.932033	-0.313376	0.0665432	-0.090581	0.014053	0.177813	0	0	0.279017	-0.0299194	-0.26348	0.116472	0.0344657	0	0	-0.281027	-0.0567164	-0.0435291	-0.0290255	-0.244317	0.245174	0.552119	0.951523	0	0	-0.0359846	-0.348979	0.375433	0.702029	1.24569	0	0
1.51	0.0212418	1.46672	-1.6692	0.857663	0.455678	0.929126	-0.32606	0.0649291	-0.106811	0.0102863	0.192818	0	0	0.251599	-0.011793	-0.208122	0.00415678	0.00426607	0	0	-0.276667	-0.0540564	-0.0483838	-0.0300265	-0.244783	0.242926	0.554687	0.951083	0	0	-0.035934	-0.347158	0.374984	0.700075	1.24255	0	0
1.52	-0.0180773	1.46956	-1.62091	0.85874	0.446796	0.926124	-0.331706	0.0728804	-0.106241	0.0172603	0.20254	0	0	0.268941	-0.00881632	-0.19718	0	0.00959213	0	0	-0.276019	-0.0495152	-0.0552549	-0.0294264	-0.245235	0.245576	0.5576	0.929586	0	0	-0.0320653	-0.351607	0.396323	0.704216	1.16895	0	0
1.53	0.0331192	1.48569	-1.67195	0.85883	0.438255	0.921116	-0.323229	0.0701542	-0.0983305	0.0181916	0.214839	0	0	0.300722	-0.000426065	-0.196164	0	0.0168495	0	0	-0.260232	-0.0558327	-0.0574487	-0.0282815	-0.243502	0.246675	0.558678	0.921966	0	0	-0.0322694	-0.355446	0.402317	0.708102	1.14475	0	0
1.54	-0.0156726	1.48667	-1.61821	0.859704	0.428921	0.91858	-0.32523	0.0733302	-0.113741	0.0375793	0.233087	0	0	0.312191	0.00247968	-0.195417	0	0.0264316	0	0	-0.261663	-0.0519349	-0.0622929	-0.0253929	-0.244181	0.25115	0.559128	0.913236	0	0	-0.0297016	-0.35638	0.409189	0.708432	1.11242	0	0
1.55	-0.0585803	1.49211	-1.57099	0.860713	0.418727	0.915709	-0.316215	0.0742912	-0.145755	0.0709467	0.26138	0	0	0.326575	0.00614803	-0.21221	0	0.0445651	0	0	-0.256596	-0.0482341	-0.0680101	-0.0236312	-0.246719	0.261501	0.561118	0.903936	0	0	-0.0305547	-0.35689	0.413867	0.710178	1.06848	0	0
1.56	-0.0738656	1.50683	-1.5518	0.861622	0.408369	0.911847	-0.278317	0.0662269	-0.219753	0.146384	0.32135	0	0	0.346861	0.0134168	-0.21721	0	0.0548241	0	0	-0.241076	-0.0478562	-0.0746953	-0.028233	-0.255698	0.288995	0.580779	0.900788	0	0	-0.0409949	-0.357648	0.401232	0.72728	1.00753	0	0
1.57	-0.0848096	1.48792	-1.54542	0.861176	0.397085	0.912103	-0.331344	0.0713727	-0.158387	0.10258	0.281662	0	0	0.323399	0.0163742	-0.225922	0	0.0509955	0	0	-0.260459	-0.0504394	-0.0680262	-0.0203181	-0.244288	0.260686	0.554894	0.901347	0	0	-0.0303005	-0.357444	0.415413	0.705466	1.07027	0	0
1.58	-0.0840698	1.48206	-1.55134	0.860916	0.385411	0.910969	-0.348078	0.0684968	-0.14772	0.108277	0.280669	0	0	0.311837	0.0208582	-0.234808	0	0.049378	0	0	-0.264928	-0.05388	-0.0623871	-0.0191994	-0.240351	0.248563	0.547526	0.90698	0	0	-0.0298022	-0.356496	0.412267	0.698514	1.11728	0	0
1.59	-0.0787268	1.47953	-1.56328	0.860559	0.373338	0.909624	-0.35386	0.0629095	-0.151485	0.130008	0.289319	0	0	0.300764	0.025333	-0.239122	0	0.0461288	0	0	-0.264884	-0.0581072	-0.0555821	-0.0192309	-0.238223	0.243589	0.541331	0.91185	0	0	-0.0314645	-0.355367	0.40742	0.692962	1.15404	0	0
1.6	-0.0772719	1.48009	-1.57398	0.860115	0.360496	0.908274	-0.355845	0.0523206	-0.164273	0.154782	0.301959	0	0	0.281568	0.0300281	-0.239065	0	0.0442747	0	0	-0.260043	-0.0622217	-0.0468955	-0.0202036	-0.236769	0.241638	0.534418	0.914648	0	0	-0.0351032	-0.35435	0.403487	0.688093	1.18306	0	0
